<?xml version="1.0" encoding="UTF-8"?>
<!DOCTYPE svg PUBLIC "-//W3C//DTD SVG 1.1//EN" "http://www.w3.org/Graphics/SVG/1.1/DTD/svg11.dtd">
<svg xmlns="http://www.w3.org/2000/svg" version="1.1" width="411px" height="411px" style="shape-rendering:geometricPrecision; text-rendering:geometricPrecision; image-rendering:optimizeQuality; fill-rule:evenodd; clip-rule:evenodd" xmlns:xlink="http://www.w3.org/1999/xlink">
  <!-- 펄스 애니메이션 외곽선 -->
  <!-- <g>
    <path
      d="M 297.5,62.5 C 297.41,65.1522 298.076,67.4855 299.5,69.5C 300.903,72.9085 301.57,76.5752 301.5,80.5C 300.99,83.3878 301.656,85.7211 303.5,87.5C 307.557,88.5516 310.057,91.2182 311,95.5C 314.048,111.282 313.381,126.948 309,142.5C 304.293,150.283 297.46,155.283 288.5,157.5C 288.167,158.167 287.833,158.833 287.5,159.5C 290.687,173.58 294.187,187.58 298,201.5C 300.916,203.013 303.582,202.68 306,200.5C 324.058,200.399 342.225,200.565 360.5,201C 377.156,203.514 393.156,208.014 408.5,214.5C 399.261,240.148 389.594,265.648 379.5,291C 397.388,312.631 397.888,334.798 381,357.5C 372.514,367.75 363.68,368.083 354.5,358.5C 350.049,367.519 346.382,376.852 343.5,386.5C 303.436,373.024 263.436,373.19 223.5,387C 217.115,389.862 210.782,392.695 204.5,395.5C 160.392,373.716 114.892,370.716 68,386.5C 66.5232,385.556 65.5232,384.223 65,382.5C 62.6531,375.29 59.8197,368.29 56.5,361.5C 50.8055,366.005 44.8055,366.505 38.5,363C 25.3981,350.192 19.7315,334.692 21.5,316.5C 22.9238,314.485 23.5905,312.152 23.5,309.5C 25.8869,304.395 28.5536,299.395 31.5,294.5C 20.9388,268.712 10.9388,242.712 1.5,216.5C 2.60531,215.108 3.93864,213.941 5.5,213C 17.252,207.584 29.5853,204.084 42.5,202.5C 47.7312,202.556 52.7312,201.889 57.5,200.5C 75.503,199.691 93.503,199.691 111.5,200.5C 112.365,197.338 113.365,194.338 114.5,191.5C 115.924,189.485 116.59,187.152 116.5,184.5C 118.342,175.466 120.342,166.466 122.5,157.5C 106.741,154.239 98.2407,144.573 97,128.5C 93.9546,114.992 95.2879,101.992 101,89.5C 103.172,88.4147 105.172,87.0814 107,85.5C 111.692,44.1361 134.525,19.3028 175.5,11C 207.783,4.04776 238.45,8.38109 267.5,24C 282.194,33.2442 292.194,46.0775 297.5,62.5 Z"
      fill="none"
      stroke="rgba(255, 255, 255, 0.7)"
      stroke-width="20"
    >
    <animate
      attributeName="opacity"
      values="0; 1; 0"
      keyTimes="0; 0.5; 1"
      dur="4s"
      repeatCount="indefinite"
    />
    </path>

  </g> -->

 <!-- 로고 본체 -->
  <g>
    <g><path style="opacity:0.998" fill="#090909" d="M 297.5,62.5 C 297.41,65.1522 298.076,67.4855 299.5,69.5C 300.903,72.9085 301.57,76.5752 301.5,80.5C 300.99,83.3878 301.656,85.7211 303.5,87.5C 307.557,88.5516 310.057,91.2182 311,95.5C 314.048,111.282 313.381,126.948 309,142.5C 304.293,150.283 297.46,155.283 288.5,157.5C 288.167,158.167 287.833,158.833 287.5,159.5C 290.687,173.58 294.187,187.58 298,201.5C 300.916,203.013 303.582,202.68 306,200.5C 324.058,200.399 342.225,200.565 360.5,201C 377.156,203.514 393.156,208.014 408.5,214.5C 399.261,240.148 389.594,265.648 379.5,291C 397.388,312.631 397.888,334.798 381,357.5C 372.514,367.75 363.68,368.083 354.5,358.5C 350.049,367.519 346.382,376.852 343.5,386.5C 303.436,373.024 263.436,373.19 223.5,387C 217.115,389.862 210.782,392.695 204.5,395.5C 160.392,373.716 114.892,370.716 68,386.5C 66.5232,385.556 65.5232,384.223 65,382.5C 62.6531,375.29 59.8197,368.29 56.5,361.5C 50.8055,366.005 44.8055,366.505 38.5,363C 25.3981,350.192 19.7315,334.692 21.5,316.5C 22.9238,314.485 23.5905,312.152 23.5,309.5C 25.8869,304.395 28.5536,299.395 31.5,294.5C 20.9388,268.712 10.9388,242.712 1.5,216.5C 2.60531,215.108 3.93864,213.941 5.5,213C 17.252,207.584 29.5853,204.084 42.5,202.5C 47.7312,202.556 52.7312,201.889 57.5,200.5C 75.503,199.691 93.503,199.691 111.5,200.5C 112.365,197.338 113.365,194.338 114.5,191.5C 115.924,189.485 116.59,187.152 116.5,184.5C 118.342,175.466 120.342,166.466 122.5,157.5C 106.741,154.239 98.2407,144.573 97,128.5C 93.9546,114.992 95.2879,101.992 101,89.5C 103.172,88.4147 105.172,87.0814 107,85.5C 111.692,44.1361 134.525,19.3028 175.5,11C 207.783,4.04776 238.45,8.38109 267.5,24C 282.194,33.2442 292.194,46.0775 297.5,62.5 Z M 175.5,76.5 C 173.142,76.7475 171.142,76.0808 169.5,74.5C 160.919,60.704 148.919,56.204 133.5,61C 126.811,66.2117 123.144,73.045 122.5,81.5C 121.833,81.8333 121.167,82.1667 120.5,82.5C 121.522,59.3171 132.188,42.1504 152.5,31C 187.994,14.2489 223.327,14.5822 258.5,32C 276.772,43.0336 287.105,59.2002 289.5,80.5C 289,81.5 288.5,82.5 288,83.5C 284.424,60.8031 272.258,53.9698 251.5,63C 246.298,67.5406 241.131,72.0406 236,76.5C 215.685,72.5307 195.519,72.5307 175.5,76.5 Z"/></g>
    <g><path style="opacity:0.78" fill="#636363" d="M 297.5,62.5 C 298.924,64.5145 299.59,66.8478 299.5,69.5C 298.076,67.4855 297.41,65.1522 297.5,62.5 Z"/></g>
    <g><path style="opacity:0.835" fill="#585858" d="M 169.5,74.5 C 171.142,76.0808 173.142,76.7475 175.5,76.5C 174.054,77.6129 172.387,77.7796 170.5,77C 169.748,76.3292 169.414,75.4959 169.5,74.5 Z"/></g>
    <g><path style="opacity:1" fill="#9b9b9b" d="M 122.5,81.5 C 122.646,86.1366 121.979,86.4699 120.5,82.5C 121.167,82.1667 121.833,81.8333 122.5,81.5 Z"/></g>
    <g><path style="opacity:0.365" fill="#909090" d="M 301.5,80.5 C 302.268,82.7146 302.935,85.0479 303.5,87.5C 301.656,85.7211 300.99,83.3878 301.5,80.5 Z"/></g>
    <g><path style="opacity:1" fill="#f4f4f4" d="M 169.5,130.5 C 180.847,130.88 184.347,136.213 180,146.5C 172.682,151.511 167.016,150.178 163,142.5C 162.287,136.926 164.453,132.926 169.5,130.5 Z"/></g>
    <g><path style="opacity:1" fill="#f4f4f4" d="M 234.5,130.5 C 245.847,130.88 249.347,136.213 245,146.5C 237.782,151.357 232.115,150.023 228,142.5C 227.287,136.926 229.453,132.926 234.5,130.5 Z"/></g>
    <g><path style="opacity:1" fill="#080808" d="M 170.5,138.5 C 177.827,139.328 179.16,142.494 174.5,148C 169.333,148.833 167.167,146.667 168,141.5C 168.698,140.309 169.531,139.309 170.5,138.5 Z"/></g>
    <g><path style="opacity:1" fill="#0b0b0b" d="M 235.5,138.5 C 242.804,139.269 244.138,142.436 239.5,148C 234.333,148.833 232.167,146.667 233,141.5C 233.698,140.309 234.531,139.309 235.5,138.5 Z"/></g>
    <g><path style="opacity:1" fill="#e6e6e6" d="M 173.5,140.5 C 175.337,140.639 175.67,141.306 174.5,142.5C 173.702,142.043 173.369,141.376 173.5,140.5 Z"/></g>
    <g><path style="opacity:1" fill="#ededed" d="M 238.5,140.5 C 240.337,140.639 240.67,141.306 239.5,142.5C 238.702,142.043 238.369,141.376 238.5,140.5 Z"/></g>
    <g><path style="opacity:1" fill="#fbfbfb" d="M 198.5,154.5 C 212.42,153.377 223.586,158.377 232,169.5C 242.798,184.822 246.131,201.489 242,219.5C 235.96,226.104 228.46,229.937 219.5,231C 207.784,231.887 196.117,231.554 184.5,230C 168.294,226.095 161.794,215.928 165,199.5C 167.956,185.085 174.456,172.585 184.5,162C 188.815,158.678 193.482,156.178 198.5,154.5 Z"/></g>
    <g><path style="opacity:1" fill="#141414" d="M 199.5,186.5 C 213.762,185.023 216.262,189.69 207,200.5C 204.158,212.5 208.325,216.5 219.5,212.5C 221.354,213.176 221.687,214.176 220.5,215.5C 215.064,219.309 209.731,219.309 204.5,215.5C 199.401,219.354 194.234,219.354 189,215.5C 188.251,214.365 188.417,213.365 189.5,212.5C 192.549,214.466 195.882,214.966 199.5,214C 200.667,213.5 201.5,212.667 202,211.5C 202.827,207.459 202.66,203.459 201.5,199.5C 197.277,195.601 196.61,191.268 199.5,186.5 Z"/></g>
    <g><path style="opacity:0.663" fill="#606060" d="M 116.5,184.5 C 116.59,187.152 115.924,189.485 114.5,191.5C 114.41,188.848 115.076,186.515 116.5,184.5 Z"/></g>
    <g><path style="opacity:0.82" fill="#434343" d="M 57.5,200.5 C 52.7312,201.889 47.7312,202.556 42.5,202.5C 47.2688,201.111 52.2688,200.444 57.5,200.5 Z"/></g>
    <g><path style="opacity:1" fill="#f9f9f9" d="M 201.5,254.5 C 201.832,299.003 201.499,343.336 200.5,387.5C 158.541,369.227 115.541,366.56 71.5,379.5C 70.8333,379.167 70.1667,378.833 69.5,378.5C 66.731,371.358 64.0644,364.192 61.5,357C 67.418,345.57 72.7514,333.903 77.5,322C 112.577,315.968 146.577,319.635 179.5,333C 182.249,334.123 184.749,335.623 187,337.5C 187.758,335.231 187.591,333.064 186.5,331C 151.27,314.919 114.603,310.419 76.5,317.5C 77.8149,312.256 78.4815,306.923 78.5,301.5C 109.365,297.457 139.365,300.957 168.5,312C 174.943,314.387 180.943,317.554 186.5,321.5C 187.833,319.5 187.833,317.5 186.5,315.5C 152.257,297.72 115.924,291.387 77.5,296.5C 77.7465,291.571 76.7465,286.905 74.5,282.5C 107.385,278.402 139.052,282.902 169.5,296C 175.595,299.102 181.429,302.602 187,306.5C 187.667,304.5 187.667,302.5 187,300.5C 171.157,290.548 153.99,283.714 135.5,280C 117.669,276.25 99.6694,274.916 81.5,276C 78.1103,276.246 74.777,276.746 71.5,277.5C 66.4292,273.745 60.7625,272.578 54.5,274C 46.9859,277.752 40.6525,282.919 35.5,289.5C 26.1693,265.843 16.836,242.176 7.5,218.5C 27.5187,208.928 48.6854,204.262 71,204.5C 105.683,204.695 138.516,212.529 169.5,228C 182.156,234.494 192.822,243.328 201.5,254.5 Z"/></g>
    <g><path style="opacity:1" fill="#f9f9f9" d="M 320.5,204.5 C 341.835,203.459 362.835,205.625 383.5,211C 389.206,213.069 394.872,215.235 400.5,217.5C 401.583,218.365 401.749,219.365 401,220.5C 392.324,242.534 383.657,264.534 375,286.5C 370.613,280.768 365.113,276.602 358.5,274C 352.906,272.618 347.906,273.618 343.5,277C 301.876,271.526 262.542,278.526 225.5,298C 222.697,299.911 222.03,302.411 223.5,305.5C 250.111,289.26 279.111,280.927 310.5,280.5C 320.285,280.565 329.951,281.565 339.5,283.5C 336.909,287.8 335.909,292.467 336.5,297.5C 296.568,290.704 258.735,296.704 223,315.5C 222.333,317.5 222.333,319.5 223,321.5C 241.844,309.99 262.344,303.157 284.5,301C 301.583,298.871 318.583,299.371 335.5,302.5C 335.751,307.507 336.084,312.507 336.5,317.5C 297.313,309.79 259.646,314.29 223.5,331C 222.24,332.814 222.24,334.647 223.5,336.5C 260.312,318.65 298.645,314.484 338.5,324C 341.262,334.023 345.262,343.523 350.5,352.5C 346.731,361.31 343.065,370.143 339.5,379C 326.317,376.247 312.983,373.913 299.5,372C 267.301,368.504 236.801,374.004 208,388.5C 207.333,343.5 207.333,298.5 208,253.5C 220.322,239.425 235.155,228.925 252.5,222C 274.417,212.79 297.084,206.956 320.5,204.5 Z"/></g>
    <g><path style="opacity:1" fill="#111111" d="M 52.5,218.5 C 96.5993,215.618 137.933,224.785 176.5,246C 180.088,248.377 183.588,250.877 187,253.5C 187.667,255.5 187.667,257.5 187,259.5C 147.335,231.539 103.169,219.706 54.5,224C 46.4417,224.843 38.4417,226.01 30.5,227.5C 30.5,225.833 30.5,224.167 30.5,222.5C 38.0516,221.647 45.385,220.313 52.5,218.5 Z"/></g>
    <g><path style="opacity:1" fill="#0f0f0f" d="M 322.5,218.5 C 332.172,218.334 341.839,218.5 351.5,219C 360.829,220.277 370.162,221.444 379.5,222.5C 379.822,225.532 378.489,227.199 375.5,227.5C 332.235,218.696 290.569,223.529 250.5,242C 241.104,246.905 232.104,252.405 223.5,258.5C 222.03,255.411 222.697,252.911 225.5,251C 255.011,231.441 287.344,220.608 322.5,218.5 Z"/></g>
    <g><path style="opacity:1" fill="#121212" d="M 69.5,242.5 C 64.2688,242.444 59.2688,243.111 54.5,244.5C 48.7105,244.858 43.0438,245.858 37.5,247.5C 37.2606,245.533 37.5939,243.699 38.5,242C 91.4499,231.204 140.783,240.037 186.5,268.5C 187.833,270.5 187.833,272.5 186.5,274.5C 151.073,251.207 112.073,240.54 69.5,242.5 Z"/></g>
    <g><path style="opacity:1" fill="#111111" d="M 308.5,237.5 C 324.195,237.204 339.862,237.704 355.5,239C 361.211,240.309 366.877,241.809 372.5,243.5C 371.754,244.736 371.421,246.07 371.5,247.5C 318.042,235.226 268.542,244.226 223,274.5C 222.242,272.231 222.409,270.064 223.5,268C 249.526,251.16 277.86,240.993 308.5,237.5 Z"/></g>
    <g><path style="opacity:1" fill="#b0b0b0" d="M 69.5,242.5 C 64.7312,243.889 59.7312,244.556 54.5,244.5C 59.2688,243.111 64.2688,242.444 69.5,242.5 Z"/></g>
    <g><path style="opacity:1" fill="#c5c5c5" d="M 201.5,254.5 C 202.831,299.002 202.831,343.669 201.5,388.5C 200.893,388.376 200.56,388.043 200.5,387.5C 201.499,343.336 201.832,299.003 201.5,254.5 Z"/></g>
    <g><path style="opacity:1" fill="#4d4d4d" d="M 336.5,257.5 C 322.817,257.355 309.15,257.688 295.5,258.5C 303.445,256.994 311.612,256.327 320,256.5C 325.677,256.501 331.177,256.834 336.5,257.5 Z"/></g>
    <g><path style="opacity:1" fill="#0f0f0f" d="M 73.5,256.5 C 111.388,254.503 147.055,262.337 180.5,280C 182.667,281.5 184.833,283 187,284.5C 187.808,286.579 187.641,288.579 186.5,290.5C 167.971,277.82 147.638,269.32 125.5,265C 98.3779,259.942 71.3779,260.442 44.5,266.5C 44.1412,264.234 44.8078,262.401 46.5,261C 55.6013,259.243 64.6013,257.743 73.5,256.5 Z"/></g>
    <g><path style="opacity:1" fill="#0d0d0d" d="M 336.5,257.5 C 346.191,258.646 355.858,259.98 365.5,261.5C 365.709,263.714 364.876,265.381 363,266.5C 315.607,255.705 270.774,262.205 228.5,286C 226.391,287.141 224.558,288.641 223,290.5C 221.877,287.044 222.71,284.21 225.5,282C 247.11,269.074 270.444,261.241 295.5,258.5C 309.15,257.688 322.817,257.355 336.5,257.5 Z"/></g>
    <g><path style="opacity:0.584" fill="#6f6f6f" d="M 23.5,309.5 C 23.5905,312.152 22.9238,314.485 21.5,316.5C 21.4095,313.848 22.0762,311.515 23.5,309.5 Z"/></g>
    <g><path style="opacity:1" fill="#0d0d0d" d="M 98.5,333.5 C 128.932,331.157 158.266,335.657 186.5,347C 187.76,348.814 187.76,350.647 186.5,352.5C 149.53,337.086 111.696,334.419 73,344.5C 71.0131,342.321 71.1798,340.488 73.5,339C 81.8768,336.722 90.2101,334.889 98.5,333.5 Z"/></g>
    <g><path style="opacity:1" fill="#0d0d0d" d="M 272.5,333.5 C 294.524,332.045 316.19,334.045 337.5,339.5C 337.5,341.167 337.5,342.833 337.5,344.5C 307.231,336.687 276.898,336.521 246.5,344C 238.498,345.945 230.831,348.778 223.5,352.5C 222.369,350.926 222.202,349.259 223,347.5C 238.865,340.245 255.365,335.578 272.5,333.5 Z"/></g>
    <g><path style="opacity:1" fill="#0f0f0f" d="M 108.5,352.5 C 135.24,351.13 161.24,354.796 186.5,363.5C 187.452,365.045 187.785,366.712 187.5,368.5C 161.58,359.593 134.914,356.093 107.5,358C 98.5327,359.193 89.6993,361.027 81,363.5C 79.124,362.381 78.2907,360.714 78.5,358.5C 88.5396,356.092 98.5396,354.092 108.5,352.5 Z"/></g>
    <g><path style="opacity:1" fill="#0f0f0f" d="M 271.5,352.5 C 287.634,351.952 303.634,353.118 319.5,356C 323.608,357.027 327.608,358.36 331.5,360C 330.663,361.011 330.33,362.178 330.5,363.5C 293.663,354.183 257.33,355.85 221.5,368.5C 221.215,366.712 221.548,365.045 222.5,363.5C 238.503,357.746 254.836,354.079 271.5,352.5 Z"/></g>

  </g>
</svg>

